<svg width="140" height="140" viewBox="0 0 140 140" fill="none" xmlns="http://www.w3.org/2000/svg">
<path fill-rule="evenodd" clip-rule="evenodd" d="M14.6429 39C10.9741 39 8 41.9741 8 45.6429V94.3572C8 98.026 10.9741 101 14.6429 101H39C56.1208 101 70 87.1209 70 70C70 52.8792 56.1208 39 39 39H14.6429ZM39 59.6667C44.7069 59.6667 49.3333 64.2931 49.3333 70C49.3333 75.7069 44.7069 80.3333 39 80.3333H28.6667V59.6667H39Z" fill="#5B2DE8"/>
<path fill-rule="evenodd" clip-rule="evenodd" d="M116.5 39H101C83.8792 39 70 52.8792 70 70C70 87.1208 83.8792 101 101 101H116.5H132V95.8333C132 87.2729 125.06 80.3333 116.5 80.3333L101 80.3333C95.293 80.3333 90.6667 75.7069 90.6667 70C90.6667 64.2931 95.2931 59.6667 101 59.6667L116.5 59.6667C116.503 59.6667 116.505 59.6667 116.508 59.6667C125.065 59.6625 132 52.7245 132 44.1667V39H116.5Z" fill="#5B2DE8"/>
</svg>
