<svg width="154" height="144" viewBox="0 0 154 144" fill="none" xmlns="http://www.w3.org/2000/svg">
<g clip-path="url(#clip0_2800_10922)">
<path d="M68.4137 1.1705C59.2779 1.77302 55.2291 2.57638 48.1698 5.1873C43.2906 6.99483 38.6189 9.00324 37.7884 9.70618C36.9579 10.4091 34.7778 11.7145 33.0129 12.5179C31.1443 13.4217 27.1993 16.4343 23.9811 19.246C20.8667 21.9574 17.7523 24.267 17.1293 24.267C16.5065 24.267 15.9874 24.8696 15.9874 25.6729C15.9874 26.4763 15.3645 27.2796 14.6378 27.5809C12.5616 28.2838 6.74793 39.5308 4.9831 46.0579C4.15257 49.1711 3.01062 52.2843 2.38773 52.9872C1.34959 54.1919 0 64.2339 0 71.4641C0 77.2885 2.07629 88.5356 3.52969 89.9415C4.9831 91.3474 4.87927 88.0334 3.21824 82.5105C1.34959 76.5855 2.07629 62.4264 4.15257 62.4264C5.81362 62.4264 5.9174 63.1294 5.7098 69.2551C5.60597 72.2677 6.02123 73.6736 7.16319 74.0751C7.99371 74.4767 10.07 78.9958 11.9386 84.9203C15.2607 95.1635 19.8285 106.712 21.0743 107.615C21.3857 107.917 22.6315 109.825 23.7735 111.933C24.9154 114.042 27.6146 117.055 29.6909 118.762C31.871 120.369 33.6358 122.277 33.6358 122.98C33.6358 123.682 35.7121 124.988 38.2036 125.992C42.7715 127.8 47.8583 131.917 43.8096 130.411C42.7715 130.109 41.941 130.009 41.941 130.31C41.941 131.314 55.4367 136.636 61.0429 137.741C67.8946 139.147 69.1405 141.256 62.496 140.252C60.0047 139.85 57.2018 139.147 56.2673 138.645C54.3984 137.641 49.5195 137.339 50.454 138.244C51.5956 139.348 63.119 141.758 70.2821 142.361C74.4348 142.762 78.2759 143.365 78.795 143.766C79.8333 144.469 94.0558 143.465 98.6237 142.361C99.8692 142.059 102.257 140.653 103.918 139.348C105.475 138.042 107.967 136.636 109.42 136.235C113.677 135.03 122.916 128.603 128.938 122.678C134.024 117.657 135.893 115.348 141.81 106.712C142.848 105.306 144.405 101.59 145.34 98.5776C146.17 95.5651 147.624 92.5525 148.454 91.9497C150.738 90.2429 152.815 74.0751 151.05 72.0669C149.285 69.9581 147.209 70.0582 146.378 72.0669C145.755 73.573 145.444 73.4728 143.16 71.4641C139.63 68.2508 137.45 69.3553 137.45 74.6775C137.45 82.1089 132.986 98.0755 129.353 103.398C121.048 115.95 106.41 125.992 91.2529 129.507C77.1338 132.821 65.7142 132.118 52.4262 126.996C41.4219 122.779 39.2418 121.071 22.1124 102.996C20.4514 101.289 17.856 96.7702 16.4026 92.9541C13.8073 86.7282 13.5997 84.7195 13.4959 71.9663C13.392 59.6147 13.7035 57.0037 15.8836 50.4764C22.2163 31.7985 38.6189 16.5347 58.4472 10.8108C64.9879 8.9028 80.6635 8.70198 88.8649 10.3087C96.9625 11.9154 110.251 18.5431 116.999 24.3674C122.501 29.0871 124.577 29.8905 121.567 26.175C118.867 22.6603 107.655 14.0242 102.569 11.3129C97.7931 8.80242 90.5261 6.59314 81.1826 4.68519C79.5218 4.38393 78.2759 3.78141 78.2759 3.27931C78.2759 2.1747 84.4008 0.969663 85.8544 1.87344C86.4773 2.1747 86.5811 1.97386 86.1658 1.37134C85.7505 0.668402 84.1936 0.266724 82.6362 0.266724C81.0788 0.367143 74.7462 0.768823 68.4137 1.1705Z" fill="#3F8CFE"/>
<path d="M90.1115 2.67347C91.2545 3.47768 92.6057 4.18136 93.2291 4.18136C93.7487 4.18136 93.3334 3.47768 92.1899 2.67347C91.1507 1.86927 89.8 1.26611 89.1761 1.26611C88.6565 1.26611 89.0722 1.86927 90.1115 2.67347Z" fill="#3F8CFE"/>
<path d="M70.5952 46.0585C65.5086 53.891 63.6398 60.1169 63.0168 71.6655C62.602 79.2972 62.8096 82.9126 64.2627 87.7326C66.2354 94.5613 69.6613 101.791 72.6718 105.406C74.644 107.716 74.644 107.615 74.3326 99.6827C73.8139 87.5318 76.0976 80.4017 85.1297 65.7405C86.9981 62.6278 86.9981 62.5272 84.7144 55.6985C82.4302 48.8702 77.7589 41.3386 75.5785 40.6357C74.8517 40.4349 72.6718 42.8449 70.5952 46.0585Z" fill="#3F8CFE"/>
<path d="M39.3469 57.4039C37.7897 66.4421 41.2155 82.007 46.7177 91.1453C51.3893 98.8773 60.8367 105.907 68.7261 107.714C72.1524 108.417 72.1524 108.417 70.595 106.308C63.5357 96.869 60.5252 86.9277 60.7328 73.7725C60.8367 63.6303 60.8367 63.5297 57.9295 61.1194C54.0884 58.0067 47.5482 54.7934 43.2918 53.9898C40.1774 53.2869 40.0735 53.3875 39.3469 57.4039Z" fill="#3F8CFE"/>
<path d="M101.22 56.9046C94.3687 60.0177 90.1123 63.3317 85.8563 69.2562C79.4195 77.8923 75.4745 92.855 76.8242 103.198L77.4472 108.42L83.2606 106.512C93.0194 103.198 99.9749 97.2734 105.165 87.5328C109.526 79.1981 112.121 66.6456 110.979 59.0134C110.045 53.4905 109.214 53.3898 101.22 56.9046Z" fill="#3F8CFE"/>
<path d="M20.5545 119.363C22.8385 123.781 29.0673 129.103 31.0398 128.4C32.2856 127.898 31.1436 126.492 26.3682 122.174C22.9423 119.162 19.9317 116.651 19.6202 116.651C19.3088 116.651 19.7241 117.856 20.5545 119.363Z" fill="#3F8CFE"/>
</g>
<defs>
<clipPath id="clip0_2800_10922">
<rect width="154" height="143.733" fill="white" transform="translate(0 0.266724)"/>
</clipPath>
</defs>
</svg>
