<svg width="52" height="52" viewBox="0 0 52 52" fill="none" xmlns="http://www.w3.org/2000/svg">
<path d="M26.2712 51.7999C31.3397 51.7999 36.2945 50.2969 40.5088 47.4809C44.7232 44.665 48.0079 40.6626 49.9475 35.9799C51.8872 31.2971 52.3947 26.1443 51.4059 21.1732C50.417 16.202 47.9763 11.6357 44.3923 8.05167C40.8083 4.46765 36.2419 2.0269 31.2708 1.03807C26.2996 0.0492442 21.1468 0.556746 16.4641 2.4964C11.7813 4.43606 7.77894 7.72075 4.96299 11.9351C2.14705 16.1495 0.644044 21.1042 0.644043 26.1728L13.5689 26.1728C13.5689 23.6605 14.3139 21.2047 15.7097 19.1158C17.1054 17.0269 19.0892 15.3989 21.4102 14.4375C23.7313 13.4761 26.2853 13.2245 28.7492 13.7146C31.2132 14.2047 33.4765 15.4145 35.253 17.191C37.0294 18.9674 38.2392 21.2307 38.7293 23.6947C39.2194 26.1587 38.9679 28.7127 38.0065 31.0337C37.0451 33.3547 35.417 35.3385 33.3281 36.7343C31.2393 38.13 28.7834 38.875 26.2712 38.875L26.2712 51.7999Z" fill="#395CF5"/>
<path d="M26.2712 0.545654C22.9058 0.545654 19.5733 1.20852 16.4641 2.4964C13.3549 3.78429 10.5297 5.67197 8.15005 8.05166C5.77035 10.4314 3.88267 13.2565 2.59479 16.3657C1.30691 19.4749 0.644042 22.8074 0.644043 26.1728L13.5689 26.1728C13.5689 24.5047 13.8975 22.853 14.5358 21.3118C15.1742 19.7707 16.1098 18.3705 17.2893 17.191C18.4689 16.0114 19.8691 15.0758 21.4102 14.4375C22.9513 13.7991 24.6031 13.4706 26.2712 13.4706V0.545654Z" fill="#BBD1EA"/>
<path d="M0.644043 26.1728C0.644043 29.5382 1.30691 32.8706 2.59479 35.9798C3.88267 39.0891 5.77035 41.9142 8.15005 44.2939C10.5298 46.6736 13.3549 48.5613 16.4641 49.8491C19.5733 51.137 22.9058 51.7999 26.2712 51.7999V38.875C24.6031 38.875 22.9513 38.5464 21.4102 37.9081C19.8691 37.2697 18.4689 36.3341 17.2893 35.1546C16.1098 33.9751 15.1742 32.5748 14.5358 31.0337C13.8975 29.4926 13.5689 27.8409 13.5689 26.1728H0.644043Z" fill="#E3EBFF"/>
</svg>
